<?xml version="1.0" encoding="utf-8"?>
<!-- Generator: Adobe Illustrator 22.1.0, SVG Export Plug-In . SVG Version: 6.00 Build 0)  -->
<svg version="1.1" id="Capa_1" xmlns="http://www.w3.org/2000/svg" xmlns:xlink="http://www.w3.org/1999/xlink" x="0px" y="0px"
	 viewBox="0 0 238 40" style="enable-background:new 0 0 238 40;" xml:space="preserve">
<style type="text/css">
	.st0{fill:#DD463C;}
	.st1{fill:#FFFFFF;}
</style>
<title>Recurso 1</title>
<g id="Capa_2_1_">
	<g id="Capa_1-2">
		<g>
			<path class="st0" d="M29.9,38.9c10-1.1,17.3-10.2,16.1-20.2c-1-8.5-7.7-15.2-16.1-16.1v7.6c4.9,0.9,8.7,5.3,8.7,10.6
				c0,5.1-3.7,9.5-8.7,10.4V38.9z"/>
			<rect x="22.3" y="10.1" class="st0" width="7.6" height="21"/>
			<path class="st0" d="M22.3,38.8v-7.8c-4.9-1-8.7-5.2-8.7-10.4s3.8-9.6,8.7-10.6V2.5C12.2,3.6,5,12.7,6.1,22.7
				C7.1,31.2,13.8,37.9,22.3,38.8"/>
		</g>
		<path class="st1" d="M216.4,10.7h-1.5v7.7h1.5V10.7z M169.2,10.7h-1.5v7.7h1.5V10.7z M60.2,21.1v-2.7c-1.8-0.4-3.1-1.9-3-3.8
			c0-1.8,1.3-3.4,3-3.7V8.1c-3.6,0.5-6.1,3.8-5.7,7.4C54.9,18.4,57.2,20.7,60.2,21.1 M68.3,14.6c0,1.5-1.2,2.6-2.7,2.6
			c-1.5,0-2.6-1.2-2.6-2.7c0-1.5,1.2-2.6,2.6-2.6C67.2,11.9,68.3,13.1,68.3,14.6 M69.8,14.6c0-2.3-1.8-4.1-4.1-4.2
			c-2.3,0-4.1,1.8-4.2,4.1c0,2.3,1.8,4.1,4.1,4.2h0C67.9,18.7,69.8,17,69.8,14.6C69.8,14.7,69.8,14.6,69.8,14.6 M78.1,18.4h1.5v-3.9
			l0,0c0-2.3-1.8-4.1-4.1-4.1s-4.1,1.8-4.1,4.1l0,0v3.9h1.5v-3.8c-0.1-1.5,1-2.7,2.5-2.8c1.5-0.1,2.7,1,2.8,2.5c0,0.1,0,0.2,0,0.3
			L78.1,18.4L78.1,18.4z M83.8,12.1h1.5v-1.4h-1.5V8.6h-1.5v2.1H81v1.4h1.4v6.3h1.5L83.8,12.1z M89.4,8.6c0-0.6-0.4-1.1-1-1.1
			c-0.6,0-1.1,0.4-1.1,1c0,0,0,0.1,0,0.1c0,0.6,0.5,1,1.1,1C89,9.6,89.4,9.2,89.4,8.6 M89.2,10.7h-1.5v7.7h1.5V10.7z M98.1,14.6
			L98.1,14.6c0,1.5-1.2,2.6-2.7,2.6c-1.5,0-2.6-1.2-2.6-2.7c0-1.5,1.2-2.6,2.6-2.6C96.9,11.9,98.1,13.1,98.1,14.6 M99.5,19.4
			L99.5,19.4v-4.8c0-2.3-1.8-4.1-4.1-4.2c-2.3,0-4.1,1.8-4.2,4.1c0,2.3,1.8,4.1,4.1,4.2c0,0,0,0,0,0c1,0,1.9-0.3,2.6-0.9v1.4
			c0,1.5-1.2,2.6-2.6,2.6s-2.6-1.2-2.6-2.6h-1.5c0,2.3,1.9,4.1,4.2,4.1C97.6,23.3,99.4,21.6,99.5,19.4 M108,14.6
			c0,1.5-1.2,2.6-2.7,2.6c-1.5,0-2.6-1.2-2.6-2.7c0-1.5,1.2-2.6,2.6-2.6C106.9,11.9,108,13.1,108,14.6 M109.5,14.6
			c0-2.3-1.8-4.1-4.1-4.2c-2.3,0-4.1,1.8-4.2,4.1c0,2.3,1.8,4.1,4.1,4.2c0,0,0,0,0,0C107.6,18.7,109.5,17,109.5,14.6
			C109.5,14.7,109.5,14.6,109.5,14.6 M117.1,13.8c0.1-1.1,1.1-1.9,2.2-1.9c1.2,0,1.9,0.8,2.1,1.9H117.1z M117,14.9h5.9v-0.2
			c0-2.3-1.2-4.1-3.6-4.1c-2.4,0-3.8,1.8-3.8,4.2c0,2.3,1.4,4.1,3.8,4.1c1.5,0,2.9-0.8,3.6-2.1l-1.3-0.7c-0.6,0.9-1.2,1.5-2.3,1.5
			C117.9,17.4,117,16.2,117,14.9 M131.6,18.4h1.5v-3.9l0,0c0-2.3-1.8-4.1-4.1-4.1c-2.3,0-4.1,1.8-4.1,4.1l0,0v3.9h1.5v-3.8
			c0-1.5,1.2-2.6,2.6-2.6c1.5,0,2.6,1.2,2.6,2.6V18.4z M139.1,18.4h1.5V4.1h-1.5V18.4z M149.2,14.6c0,1.5-1.2,2.6-2.7,2.6
			c-1.5,0-2.6-1.2-2.6-2.7c0-1.5,1.2-2.6,2.6-2.6C148,11.9,149.2,13.1,149.2,14.6 M149.2,18.4h1.5v-7.7h-1.5v0.7
			c-0.8-0.6-1.7-0.9-2.6-0.9c-2.3,0-4.1,1.8-4.1,4.1c0,2.3,1.8,4.1,4.1,4.1l0,0c1,0,1.9-0.3,2.6-0.9V18.4z M165.1,14.6
			c0-3.3-2.4-6.1-5.7-6.5v2.7c1.8,0.4,3.1,1.9,3,3.8c0,1.8-1.3,3.4-3,3.7v-7.5h-2.7v7.5h2.7v2.8C162.7,20.7,165.1,17.9,165.1,14.6
			 M169.5,7.2c0-0.6-0.4-1.1-1-1.1s-1.1,0.4-1.1,1c0,0,0,0.1,0,0.1c0,0.6,0.5,1,1.1,1C169.1,8.1,169.5,7.7,169.5,7.2 M177.1,16.2
			c0-1.2-0.9-1.8-1.8-2.2c-0.9-0.4-1.8-0.7-1.8-1.4c0-0.4,0.4-0.8,0.8-0.8c0.4,0,0.8,0.3,1,0.7l1.2-0.6c-0.4-0.8-1.2-1.4-2.1-1.4
			c-1.3,0-2.3,1-2.3,2.2c0,0,0,0,0,0c0,1.1,0.6,1.5,1.5,1.9l1.5,0.8c0.3,0.2,0.6,0.5,0.5,0.9c0,0.6-0.5,1.1-1.1,1.1h0
			c-0.7,0-1.1-0.4-1.4-1l-1.3,0.6c0.5,1.1,1.5,1.7,2.7,1.7C175.8,18.8,177,17.7,177.1,16.2C177.1,16.2,177.1,16.2,177.1,16.2
			 M181.7,12.1h1.5v-1.4h-1.5V7.8h-1.5v2.9h-0.8v1.4h0.8v6.3h1.5V12.1z M192.1,14.6c0,1.5-1.2,2.6-2.7,2.6c-1.5,0-2.6-1.2-2.6-2.7
			c0-1.5,1.2-2.6,2.6-2.6C190.9,11.9,192.1,13.1,192.1,14.6 M192.1,18.4h1.5v-7.7h-1.5v0.7c-0.8-0.6-1.7-1-2.7-1
			c-2.3,0-4.1,1.8-4.1,4.1c0,2.3,1.8,4.1,4.1,4.1l0,0c1,0,1.9-0.3,2.7-1V18.4z M170.3,33.1c0.1-0.9,0.9-1.6,1.8-1.6
			c0.9,0,1.7,0.7,1.8,1.6H170.3z M169,33.9c0,1.9,1.2,3.4,3.1,3.4c1.2,0,2.4-0.7,3-1.8l-1-0.6c-0.5,0.7-1,1.2-1.9,1.2
			c-1.1,0-2-1-1.9-2.1c0,0,0,0,0,0h4.9v-0.2c0-1.9-1-3.4-3-3.4C170.1,30.4,169,31.9,169,33.9 M155.5,35.3l-1,0.5
			c0.4,0.9,1.2,1.5,2.2,1.5c1.2,0,2.2-0.9,2.2-2.1c0,0,0,0,0,0c0-1-0.7-1.5-1.5-1.8s-1.5-0.6-1.5-1.2c0-0.4,0.3-0.6,0.7-0.6
			c0.4,0,0.7,0.2,0.8,0.6l1-0.5c-0.3-0.7-1-1.1-1.8-1.1c-1,0-1.9,0.8-1.9,1.8l0,0c0,0.9,0.5,1.2,1.2,1.6l1.2,0.6
			c0.3,0.1,0.4,0.4,0.4,0.7c0,0.5-0.4,0.9-0.9,0.9h0C156.1,36.2,155.7,35.8,155.5,35.3 M121.8,31.6c0,0.6,0.5,1,1,1c0.6,0,1-0.5,1-1
			c0-0.6-0.5-1-1-1l0,0C122.2,30.5,121.8,31,121.8,31.6 M121.5,30.6h-1.2V37h1.2V30.6z M106.8,30.6h-1.1v1.2h1.1V37h1.2v-5.3h1.2
			v-1.2h-1.2v-1.8h-1.2V30.6z M94.4,30.6h-1.2v3.3l0,0c0.1,1.9,1.6,3.4,3.6,3.3c1.8-0.1,3.2-1.5,3.3-3.3l0,0v-3.3h-1.2v3.2
			c0,1.2-1,2.2-2.2,2.2c-1.2,0-2.2-1-2.2-2.2l0,0L94.4,30.6z M89.7,37.3h1.8V36h-1.8c-1.2,0-2.2-1-2.2-2.2c0-1.2,1-2.2,2.2-2.2l0,0
			h1.8v-1.2h-1.8c-1.9,0.1-3.4,1.6-3.3,3.6C86.4,35.7,87.9,37.2,89.7,37.3L89.7,37.3z M103.8,25.2h-1.2v11.9h1.2V25.2z M118.1,33.8
			L118.1,33.8v-3.3h-1.2v3.2c0,1.2-1,2.2-2.2,2.2s-2.2-1-2.2-2.2l0,0v-3.2h-1.2v3.3l0,0c0,1.9,1.5,3.4,3.4,3.4
			C116.5,37.3,118.1,35.8,118.1,33.8 M130.6,33.8c0,1.2-1,2.2-2.2,2.2s-2.2-1-2.2-2.2c0-1.2,1-2.2,2.2-2.2
			C129.7,31.6,130.6,32.6,130.6,33.8 M130.6,31.2c-0.6-0.5-1.4-0.8-2.2-0.8c-1.9,0-3.4,1.5-3.4,3.4s1.5,3.4,3.4,3.4
			c0.8,0,1.6-0.3,2.2-0.8V37h1.2v-6.4h-1.2V31.2z M143.6,33.8c0,1.2-1,2.2-2.2,2.1c-1.2,0-2.2-1-2.1-2.2c0-1.2,1-2.1,2.2-2.1
			C142.6,31.6,143.6,32.6,143.6,33.8 M143.6,37h1.2V26.4h-1.2v4.8c-0.6-0.5-1.4-0.8-2.2-0.8c-1.9,0-3.4,1.5-3.4,3.4s1.5,3.4,3.4,3.4
			l0,0c0.8,0,1.6-0.3,2.2-0.8V37z M151.4,33.1h-3.6c0.1-0.9,0.9-1.6,1.8-1.6C150.6,31.5,151.4,32.2,151.4,33.1 M149.7,30.4
			c-2.1,0-3.1,1.5-3.1,3.4c0,1.9,1.2,3.4,3.1,3.4c1.2,0,2.4-0.7,3-1.8l-1-0.6c-0.5,0.7-1,1.2-1.9,1.2c-1.1,0-2-1-1.9-2.1
			c0,0,0,0,0,0h4.9v-0.2C152.7,31.9,151.7,30.4,149.7,30.4 M166,33.8c0,1.2-1,2.2-2.2,2.1c-1.2,0-2.2-1-2.1-2.2c0-1.2,1-2.1,2.2-2.1
			C165,31.6,166,32.6,166,33.8 M166,26.4v4.8c-0.6-0.5-1.4-0.8-2.2-0.8c-1.9,0-3.4,1.5-3.4,3.4s1.5,3.4,3.4,3.4
			c0.8,0,1.6-0.3,2.2-0.8V37h1.2V26.4H166z M184.2,30.4c-1.9,0.1-3.4,1.6-3.3,3.6c0.1,1.8,1.5,3.2,3.3,3.3h1.8V36h-1.8
			c-1.2,0-2.2-1-2.2-2.2c0-1.2,1-2.2,2.2-2.2h1.8v-1.2L184.2,30.4L184.2,30.4z M193.3,33.8c0,1.2-1,2.2-2.2,2.1
			c-1.2,0-2.2-1-2.1-2.2c0-1.2,1-2.1,2.2-2.1C192.3,31.6,193.3,32.6,193.3,33.8 M193.3,31.2c-0.6-0.5-1.4-0.8-2.2-0.8
			c-1.9,0-3.4,1.5-3.4,3.4c0,1.9,1.5,3.4,3.4,3.4c0.8,0,1.6-0.3,2.2-0.8V37h1.2v-6.4h-1.2V31.2z M198.6,30.4c-1,0-1.9,0.8-1.9,1.8
			l0,0c0,0.9,0.5,1.2,1.2,1.6l1.2,0.6c0.3,0.1,0.4,0.4,0.4,0.7c0,0.5-0.4,0.9-0.9,0.9h0c-0.5,0-1-0.3-1.2-0.8l-1,0.5
			c0.4,0.9,1.2,1.5,2.2,1.5c1.2,0,2.2-0.9,2.2-2.1c0,0,0,0,0,0c0-1-0.7-1.5-1.5-1.8c-0.7-0.3-1.5-0.6-1.5-1.2c0-0.4,0.3-0.6,0.7-0.6
			c0.4,0,0.7,0.2,0.8,0.6l1-0.5C200,30.9,199.4,30.4,198.6,30.4 M208.2,33.8c0,1.2-1,2.2-2.2,2.2c-1.2,0-2.2-1-2.2-2.2
			c0-1.2,1-2.2,2.2-2.2C207.3,31.6,208.2,32.6,208.2,33.8 M208.2,37h1.2v-6.4h-1.2v0.6c-0.6-0.5-1.4-0.8-2.2-0.8
			c-1.9,0-3.4,1.5-3.4,3.4c0,1.9,1.5,3.4,3.4,3.4l0,0c0.8,0,1.6-0.3,2.2-0.8V37z M203,18.4h1.5v-3.9l0,0c-0.1-2.3-2-4.1-4.3-4
			c-2.2,0.1-3.9,1.8-4,4l0,0v3.9h1.5v-3.8c-0.1-1.5,1.1-2.7,2.5-2.7c1.5-0.1,2.7,1.1,2.7,2.5c0,0.1,0,0.1,0,0.2V18.4z M210.4,18.6
			h2.2v-1.5h-2.1c-1.5,0.1-2.7-1.1-2.7-2.5c-0.1-1.5,1.1-2.7,2.5-2.7c0.1,0,0.1,0,0.2,0h2.1v-1.5h-2.2c-2.2,0.1-4,1.9-4,4.2
			C206.5,16.9,208.2,18.6,210.4,18.6L210.4,18.6z M216.7,7.2c0-0.6-0.4-1.1-1-1.1s-1.1,0.4-1.1,1c0,0,0,0.1,0,0.1c0,0.6,0.5,1,1.1,1
			C216.3,8.1,216.7,7.7,216.7,7.2 M225.4,14.6c0,1.5-1.2,2.6-2.7,2.6c-1.5,0-2.6-1.2-2.6-2.7c0-1.5,1.2-2.6,2.6-2.6
			C224.2,11.9,225.4,13.1,225.4,14.6 M226.9,18.4v-7.7h-1.5v0.7c-0.8-0.6-1.7-0.9-2.6-0.9c-2.3,0-4.1,1.8-4.1,4.1
			c0,2.3,1.8,4.1,4.1,4.1l0,0c1,0,1.9-0.3,2.6-0.9v0.7H226.9z"/>
	</g>
</g>
</svg>
